<?xml version="1.0" standalone="no"?>
<!DOCTYPE svg PUBLIC "-//W3C//DTD SVG 20010904//EN"
 "http://www.w3.org/TR/2001/REC-SVG-20010904/DTD/svg10.dtd">
<svg version="1.0" xmlns="http://www.w3.org/2000/svg"
 width="24.000000pt" height="24.000000pt" viewBox="0 0 24.000000 24.000000"
 preserveAspectRatio="xMidYMid meet">

<g transform="translate(0.000000,24.000000) scale(0.100000,-0.100000)"
fill="#000000" stroke="none">
<path d="M130 210 c0 -5 6 -10 13 -10 16 0 57 -42 57 -58 0 -7 5 -12 10 -12
20 0 10 32 -19 61 -29 29 -61 39 -61 19z"/>
<path d="M40 195 c-20 -24 -3 -84 34 -121 40 -40 100 -55 124 -30 16 16 15 19
-12 42 -27 24 -29 24 -48 7 -19 -17 -21 -17 -39 6 -18 22 -18 25 -4 41 14 15
13 19 -6 43 -24 31 -32 33 -49 12z"/>
<path d="M130 175 c0 -7 38 -45 45 -45 10 0 4 19 -11 34 -15 15 -34 21 -34 11z"/>
</g>
</svg>
